<svg width="24" height="21" viewBox="0 0 24 21" fill="none" xmlns="http://www.w3.org/2000/svg">
<path d="M16.7334 6.06302L16.7334 6.06305C16.5196 6.23792 16.4881 6.55294 16.663 6.76665C17.494 7.78227 18 9.07166 18 10.5C18 11.9324 17.4913 13.271 16.663 14.2834C16.4882 14.4971 16.5196 14.8121 16.7334 14.987C16.947 15.1618 17.262 15.1304 17.437 14.9167L16.7334 6.06302ZM16.7334 6.06302C16.9471 5.88821 17.2621 5.91964 17.4371 6.13344M16.7334 6.06302L17.4371 6.13344M17.4371 6.13344C18.4061 7.31789 19 8.82848 19 10.5M17.4371 6.13344L19 10.5M19 10.5C19 12.1675 18.4087 13.7289 17.4371 14.9166L19 10.5ZM13.726 1.05399L13.726 1.05401C13.8941 1.13918 14 1.31156 14 1.50001V19.5C14 19.6884 13.8941 19.8609 13.7261 19.946L13.726 19.946C13.5579 20.0312 13.3562 20.0146 13.2043 19.9032L13.2043 19.9032L5.91974 14.5612L5.81203 14.4822L5.67927 14.4675L3.25182 14.1978L3.25183 14.1977L3.24542 14.1971C1.9291 14.068 1 12.9417 1 11.7V9.30001C1 7.99161 1.99526 6.93056 3.24524 6.80299L3.24524 6.80301L3.2497 6.80252L5.67928 6.53257L5.81203 6.51782L5.91974 6.43883L13.2043 1.09681C13.3562 0.985368 13.558 0.968844 13.726 1.05399ZM13 3.47342V2.48671L12.2043 3.07021L6.29568 7.40321C6.2251 7.45497 6.14219 7.48728 6.05524 7.49694L6.05521 7.49694L3.35521 7.79694L3.35493 7.79698L3.3521 7.79729L3.34975 7.79753C2.60086 7.87241 2 8.51135 2 9.30001V11.7C2 12.4606 2.57159 13.1273 3.34538 13.2021C3.34605 13.2021 3.34673 13.2022 3.34741 13.2023L3.35738 13.2033L6.05521 13.503L6.05529 13.5031C6.14212 13.5127 6.22503 13.545 6.29568 13.5968L12.2043 17.9298L13 18.5133V17.5266V3.47342ZM19.4117 3.03186L19.4117 3.03181C19.615 2.84502 19.9313 2.85834 20.1181 3.06169C21.9004 5.00114 23 7.62092 23 10.5C23 13.3791 21.9004 15.9988 20.1181 17.9383L20.1181 17.9383C19.9313 18.1417 19.615 18.155 19.4117 17.9682L19.4117 17.9681C19.2083 17.7813 19.195 17.465 19.3818 17.2618L19.3819 17.2617C20.9997 15.5012 22 13.1209 22 10.5C22 7.87911 20.9997 5.49889 19.3819 3.73832L19.0137 4.07663L19.3819 3.73831C19.195 3.53496 19.2084 3.21868 19.4117 3.03186Z" fill="#FCFCFC" stroke="#FCFCFC"/>
</svg>
